<mxfile host="Electron" agent="Mozilla/5.0 (X11; Linux x86_64) AppleWebKit/537.36 (KHTML, like Gecko) draw.io/26.1.1 Chrome/134.0.6998.205 Electron/35.7.5 Safari/537.36" version="26.1.1">
  <diagram name="Page-1" id="J_8jPDjQmSe_VYdiCz8E">
    <mxGraphModel dx="238" dy="353" grid="1" gridSize="10" guides="1" tooltips="1" connect="1" arrows="1" fold="1" page="1" pageScale="1" pageWidth="160" pageHeight="120" math="0" shadow="0">
      <root>
        <mxCell id="0" />
        <mxCell id="1" parent="0" />
        <mxCell id="bKn-HVYRaOfpSE3k-fgb-11" value="" style="endArrow=none;dashed=1;html=1;rounded=0;entryX=0;entryY=0.5;entryDx=0;entryDy=0;exitX=0.5;exitY=0;exitDx=0;exitDy=0;curved=1;strokeColor=#0000FF;strokeWidth=2;" parent="1" source="bKn-HVYRaOfpSE3k-fgb-2" target="bKn-HVYRaOfpSE3k-fgb-3" edge="1">
          <mxGeometry width="50" height="50" relative="1" as="geometry">
            <mxPoint x="210" y="70" as="sourcePoint" />
            <mxPoint x="260" y="20" as="targetPoint" />
            <Array as="points">
              <mxPoint x="230" y="10" />
            </Array>
          </mxGeometry>
        </mxCell>
        <mxCell id="bKn-HVYRaOfpSE3k-fgb-15" value="" style="endArrow=none;dashed=1;html=1;rounded=0;entryX=1;entryY=0.5;entryDx=0;entryDy=0;exitX=1.017;exitY=0.466;exitDx=0;exitDy=0;curved=1;strokeColor=#0000FF;exitPerimeter=0;strokeWidth=2;" parent="1" source="bKn-HVYRaOfpSE3k-fgb-1" target="bKn-HVYRaOfpSE3k-fgb-4" edge="1">
          <mxGeometry width="50" height="50" relative="1" as="geometry">
            <mxPoint x="231" y="49" as="sourcePoint" />
            <mxPoint x="260" y="25" as="targetPoint" />
            <Array as="points">
              <mxPoint x="330" y="80" />
            </Array>
          </mxGeometry>
        </mxCell>
        <mxCell id="bKn-HVYRaOfpSE3k-fgb-19" value="" style="group" parent="1" vertex="1" connectable="0">
          <mxGeometry x="400" width="40" height="120" as="geometry" />
        </mxCell>
        <mxCell id="bKn-HVYRaOfpSE3k-fgb-20" value="" style="ellipse;whiteSpace=wrap;html=1;fillColor=none;" parent="bKn-HVYRaOfpSE3k-fgb-19" vertex="1">
          <mxGeometry width="40" height="120" as="geometry" />
        </mxCell>
        <mxCell id="bKn-HVYRaOfpSE3k-fgb-21" value="" style="ellipse;whiteSpace=wrap;html=1;fillColor=#000000;strokeColor=default;align=center;verticalAlign=middle;fontFamily=Helvetica;fontSize=12;fontColor=default;" parent="bKn-HVYRaOfpSE3k-fgb-19" vertex="1">
          <mxGeometry x="15" y="70" width="10" height="10" as="geometry" />
        </mxCell>
        <mxCell id="bKn-HVYRaOfpSE3k-fgb-22" value="" style="ellipse;whiteSpace=wrap;html=1;fillColor=#000000;strokeColor=default;align=center;verticalAlign=middle;fontFamily=Helvetica;fontSize=12;fontColor=default;" parent="bKn-HVYRaOfpSE3k-fgb-19" vertex="1">
          <mxGeometry x="15" y="100" width="10" height="10" as="geometry" />
        </mxCell>
        <mxCell id="bKn-HVYRaOfpSE3k-fgb-23" value="" style="ellipse;whiteSpace=wrap;html=1;fillColor=#000000;strokeColor=default;align=center;verticalAlign=middle;fontFamily=Helvetica;fontSize=12;fontColor=default;" parent="bKn-HVYRaOfpSE3k-fgb-19" vertex="1">
          <mxGeometry x="15" y="10" width="10" height="10" as="geometry" />
        </mxCell>
        <mxCell id="bKn-HVYRaOfpSE3k-fgb-24" value="" style="ellipse;whiteSpace=wrap;html=1;fillColor=#000000;strokeColor=default;align=center;verticalAlign=middle;fontFamily=Helvetica;fontSize=12;fontColor=default;" parent="bKn-HVYRaOfpSE3k-fgb-19" vertex="1">
          <mxGeometry x="15" y="40" width="10" height="10" as="geometry" />
        </mxCell>
        <mxCell id="bKn-HVYRaOfpSE3k-fgb-25" value="" style="endArrow=none;dashed=1;html=1;rounded=0;entryX=1;entryY=0.5;entryDx=0;entryDy=0;exitX=1.017;exitY=0.466;exitDx=0;exitDy=0;curved=1;strokeColor=#0000FF;exitPerimeter=0;strokeWidth=2;" parent="1" source="bKn-HVYRaOfpSE3k-fgb-16" target="bKn-HVYRaOfpSE3k-fgb-18" edge="1">
          <mxGeometry width="50" height="50" relative="1" as="geometry">
            <mxPoint x="371" y="49" as="sourcePoint" />
            <mxPoint x="400" y="25" as="targetPoint" />
            <Array as="points">
              <mxPoint x="470" y="80" />
            </Array>
          </mxGeometry>
        </mxCell>
        <mxCell id="bKn-HVYRaOfpSE3k-fgb-5" value="" style="group" parent="1" vertex="1" connectable="0">
          <mxGeometry x="260" width="40" height="120" as="geometry" />
        </mxCell>
        <mxCell id="bKn-HVYRaOfpSE3k-fgb-6" value="" style="ellipse;whiteSpace=wrap;html=1;fillColor=none;" parent="bKn-HVYRaOfpSE3k-fgb-5" vertex="1">
          <mxGeometry width="40" height="120" as="geometry" />
        </mxCell>
        <mxCell id="bKn-HVYRaOfpSE3k-fgb-7" value="" style="ellipse;whiteSpace=wrap;html=1;fillColor=#000000;strokeColor=default;align=center;verticalAlign=middle;fontFamily=Helvetica;fontSize=12;fontColor=default;" parent="bKn-HVYRaOfpSE3k-fgb-5" vertex="1">
          <mxGeometry x="15" y="70" width="10" height="10" as="geometry" />
        </mxCell>
        <mxCell id="bKn-HVYRaOfpSE3k-fgb-8" value="" style="ellipse;whiteSpace=wrap;html=1;fillColor=#000000;strokeColor=default;align=center;verticalAlign=middle;fontFamily=Helvetica;fontSize=12;fontColor=default;" parent="bKn-HVYRaOfpSE3k-fgb-5" vertex="1">
          <mxGeometry x="15" y="100" width="10" height="10" as="geometry" />
        </mxCell>
        <mxCell id="bKn-HVYRaOfpSE3k-fgb-9" value="" style="ellipse;whiteSpace=wrap;html=1;fillColor=#000000;strokeColor=default;align=center;verticalAlign=middle;fontFamily=Helvetica;fontSize=12;fontColor=default;" parent="bKn-HVYRaOfpSE3k-fgb-5" vertex="1">
          <mxGeometry x="15" y="10" width="10" height="10" as="geometry" />
        </mxCell>
        <mxCell id="bKn-HVYRaOfpSE3k-fgb-10" value="" style="ellipse;whiteSpace=wrap;html=1;fillColor=#000000;strokeColor=default;align=center;verticalAlign=middle;fontFamily=Helvetica;fontSize=12;fontColor=default;" parent="bKn-HVYRaOfpSE3k-fgb-5" vertex="1">
          <mxGeometry x="15" y="40" width="10" height="10" as="geometry" />
        </mxCell>
        <mxCell id="bKn-HVYRaOfpSE3k-fgb-1" value="" style="ellipse;whiteSpace=wrap;html=1;fillColor=none;strokeColor=#FF0000;strokeWidth=2;" parent="1" vertex="1">
          <mxGeometry x="250" y="30" width="60" height="60" as="geometry" />
        </mxCell>
        <mxCell id="bKn-HVYRaOfpSE3k-fgb-3" value="" style="ellipse;whiteSpace=wrap;html=1;fillColor=none;strokeColor=#FF0000;strokeWidth=2;" parent="1" vertex="1">
          <mxGeometry x="250" width="60" height="30" as="geometry" />
        </mxCell>
        <mxCell id="bKn-HVYRaOfpSE3k-fgb-4" value="" style="ellipse;whiteSpace=wrap;html=1;fillColor=none;strokeColor=#FF0000;strokeWidth=2;" parent="1" vertex="1">
          <mxGeometry x="250" y="90" width="60" height="30" as="geometry" />
        </mxCell>
        <mxCell id="bKn-HVYRaOfpSE3k-fgb-16" value="" style="ellipse;whiteSpace=wrap;html=1;fillColor=none;strokeColor=#FF0000;strokeWidth=2;" parent="1" vertex="1">
          <mxGeometry x="390" y="30" width="60" height="60" as="geometry" />
        </mxCell>
        <mxCell id="bKn-HVYRaOfpSE3k-fgb-17" value="" style="ellipse;whiteSpace=wrap;html=1;fillColor=none;strokeColor=#FF0000;strokeWidth=2;" parent="1" vertex="1">
          <mxGeometry x="390" width="60" height="30" as="geometry" />
        </mxCell>
        <mxCell id="bKn-HVYRaOfpSE3k-fgb-18" value="" style="ellipse;whiteSpace=wrap;html=1;fillColor=none;strokeColor=#FF0000;strokeWidth=2;" parent="1" vertex="1">
          <mxGeometry x="390" y="90" width="60" height="30" as="geometry" />
        </mxCell>
        <mxCell id="bKn-HVYRaOfpSE3k-fgb-2" value="" style="ellipse;whiteSpace=wrap;html=1;fillColor=none;strokeColor=#FF0000;strokeWidth=2;" parent="1" vertex="1">
          <mxGeometry x="180" y="30" width="60" height="60" as="geometry" />
        </mxCell>
        <mxCell id="ExbS7JiDTNbnzrvtenDz-1" value="" style="endArrow=classic;html=1;rounded=0;strokeWidth=5;" parent="1" edge="1">
          <mxGeometry width="50" height="50" relative="1" as="geometry">
            <mxPoint x="330" y="60" as="sourcePoint" />
            <mxPoint x="380" y="60" as="targetPoint" />
          </mxGeometry>
        </mxCell>
        <mxCell id="SJmQ3aiSbRRY5hFL9vdE-1" value="" style="group" vertex="1" connectable="0" parent="1">
          <mxGeometry x="190" y="40" width="40" height="40" as="geometry" />
        </mxCell>
        <mxCell id="bKn-HVYRaOfpSE3k-fgb-13" value="" style="ellipse;whiteSpace=wrap;html=1;fillColor=none;" parent="SJmQ3aiSbRRY5hFL9vdE-1" vertex="1">
          <mxGeometry width="40" height="40" as="geometry" />
        </mxCell>
        <mxCell id="bKn-HVYRaOfpSE3k-fgb-14" value="" style="ellipse;whiteSpace=wrap;html=1;fillColor=#000000;strokeColor=default;align=center;verticalAlign=middle;fontFamily=Helvetica;fontSize=12;fontColor=default;" parent="SJmQ3aiSbRRY5hFL9vdE-1" vertex="1">
          <mxGeometry x="15" y="15" width="10" height="10" as="geometry" />
        </mxCell>
      </root>
    </mxGraphModel>
  </diagram>
</mxfile>
